<svg xmlns="http://www.w3.org/2000/svg" viewBox="0 0 400 400">
<defs>
<linearGradient id="gold" x1="0%" y1="0%" x2="100%" y2="100%">
<stop offset="0%" stop-color="#F4D35E"/>
<stop offset="45%" stop-color="#D4AF37"/>
<stop offset="100%" stop-color="#B8860B"/>
</linearGradient>
<linearGradient id="navy" x1="0%" y1="0%" x2="100%" y2="100%">
<stop offset="0%" stop-color="#14468F"/>
<stop offset="55%" stop-color="#0B3D91"/>
<stop offset="100%" stop-color="#081B3A"/>
</linearGradient>
<radialGradient id="glow" cx="50%" cy="35%" r="70%">
<stop offset="0%" stop-color="#D4AF37" stop-opacity=".25"/>
<stop offset="100%" stop-color="#D4AF37" stop-opacity="0"/>
</radialGradient>
</defs>

<rect x="10" y="10" width="380" height="380" rx="42" fill="url(#navy)"/>
<rect x="10" y="10" width="380" height="380" rx="42" fill="url(#glow)"/>
<rect x="10.5" y="10.5" width="379" height="379" rx="42" fill="none" stroke="url(#gold)" stroke-width="1.5" opacity=".55"/>
<circle cx="200" cy="200" r="150" fill="none" stroke="#D4AF37" stroke-width="1" stroke-dasharray="2 10" opacity=".35"/>

<g transform="translate(200,205)">
<path d="M-90 10 L-30 -20 L0 -6 L30 -20 L90 10 L60 40 L0 14 L-60 40 Z" fill="url(#gold)"/>
<path d="M-90 10 L-30 -20 L0 -6 L-8 20 L-60 40 Z" fill="#fff" opacity=".25"/>
<circle cx="-90" cy="10" r="14" fill="#fff"/>
<circle cx="90" cy="10" r="14" fill="#fff"/>
</g>
<circle cx="200" cy="120" r="20" fill="none" stroke="url(#gold)" stroke-width="3"/>
<path d="M190 120 l7 7 l14 -16" stroke="url(#gold)" stroke-width="3" fill="none" stroke-linecap="round" stroke-linejoin="round"/>

<circle cx="60" cy="340" r="5" fill="url(#gold)"/>
<circle cx="345" cy="70" r="4" fill="url(#gold)" opacity=".8"/>
<circle cx="365" cy="330" r="3.5" fill="#fff" opacity=".5"/>
</svg>