<svg xmlns="http://www.w3.org/2000/svg" viewBox="0 0 400 400">
<defs>
<linearGradient id="gold" x1="0%" y1="0%" x2="100%" y2="100%">
<stop offset="0%" stop-color="#F4D35E"/>
<stop offset="45%" stop-color="#D4AF37"/>
<stop offset="100%" stop-color="#B8860B"/>
</linearGradient>
<linearGradient id="navy" x1="0%" y1="0%" x2="100%" y2="100%">
<stop offset="0%" stop-color="#14468F"/>
<stop offset="55%" stop-color="#0B3D91"/>
<stop offset="100%" stop-color="#081B3A"/>
</linearGradient>
<radialGradient id="glow" cx="50%" cy="35%" r="70%">
<stop offset="0%" stop-color="#D4AF37" stop-opacity=".25"/>
<stop offset="100%" stop-color="#D4AF37" stop-opacity="0"/>
</radialGradient>
</defs>

<rect x="10" y="10" width="380" height="380" rx="42" fill="url(#navy)"/>
<rect x="10" y="10" width="380" height="380" rx="42" fill="url(#glow)"/>
<rect x="10.5" y="10.5" width="379" height="379" rx="42" fill="none" stroke="url(#gold)" stroke-width="1.5" opacity=".55"/>
<circle cx="200" cy="200" r="150" fill="none" stroke="#D4AF37" stroke-width="1" stroke-dasharray="2 10" opacity=".35"/>

<circle cx="200" cy="200" r="34" fill="url(#gold)"/>
<circle cx="200" cy="200" r="34" fill="none" stroke="#fff" stroke-width="1.5" opacity=".4"/>
<g stroke="url(#gold)" stroke-width="7" stroke-linecap="round">
<line x1="110" y1="200" x2="110" y2="200"/>
</g>
<g fill="#fff" opacity=".9">
<rect x="255" y="185" width="8" height="30" rx="4"/>
<rect x="275" y="170" width="8" height="60" rx="4"/>
<rect x="295" y="190" width="8" height="20" rx="4"/>
</g>
<g fill="url(#gold)">
<rect x="97" y="185" width="8" height="30" rx="4"/>
<rect x="117" y="170" width="8" height="60" rx="4"/>
<rect x="137" y="190" width="8" height="20" rx="4"/>
</g>
<circle cx="200" cy="190" r="5" fill="#fff"/>
<rect x="192" y="196" width="16" height="18" rx="8" fill="#fff"/>

<circle cx="60" cy="340" r="5" fill="url(#gold)"/>
<circle cx="345" cy="70" r="4" fill="url(#gold)" opacity=".8"/>
<circle cx="365" cy="330" r="3.5" fill="#fff" opacity=".5"/>
</svg>