<svg xmlns="http://www.w3.org/2000/svg" viewBox="0 0 400 400">
<defs>
<linearGradient id="gold" x1="0%" y1="0%" x2="100%" y2="100%">
<stop offset="0%" stop-color="#F4D35E"/>
<stop offset="45%" stop-color="#D4AF37"/>
<stop offset="100%" stop-color="#B8860B"/>
</linearGradient>
<linearGradient id="navy" x1="0%" y1="0%" x2="100%" y2="100%">
<stop offset="0%" stop-color="#14468F"/>
<stop offset="55%" stop-color="#0B3D91"/>
<stop offset="100%" stop-color="#081B3A"/>
</linearGradient>
<radialGradient id="glow" cx="50%" cy="35%" r="70%">
<stop offset="0%" stop-color="#D4AF37" stop-opacity=".25"/>
<stop offset="100%" stop-color="#D4AF37" stop-opacity="0"/>
</radialGradient>
</defs>

<rect x="10" y="10" width="380" height="380" rx="42" fill="url(#navy)"/>
<rect x="10" y="10" width="380" height="380" rx="42" fill="url(#glow)"/>
<rect x="10.5" y="10.5" width="379" height="379" rx="42" fill="none" stroke="url(#gold)" stroke-width="1.5" opacity=".55"/>
<circle cx="200" cy="200" r="150" fill="none" stroke="#D4AF37" stroke-width="1" stroke-dasharray="2 10" opacity=".35"/>

<g>
<ellipse cx="160" cy="160" rx="42" ry="14" fill="url(#gold)"/>
<rect x="118" y="160" width="84" height="26" fill="url(#gold)" opacity=".85"/>
<ellipse cx="160" cy="186" rx="42" ry="14" fill="url(#gold)" opacity=".85"/>
<rect x="118" y="186" width="84" height="26" fill="url(#gold)" opacity=".7"/>
<ellipse cx="160" cy="212" rx="42" ry="14" fill="url(#gold)" opacity=".7"/>
<rect x="118" y="212" width="84" height="26" fill="url(#gold)" opacity=".55"/>
<ellipse cx="160" cy="238" rx="42" ry="14" fill="url(#gold)" opacity=".55"/>
</g>
<g transform="translate(258,225)" fill="#fff" opacity=".9">
<circle r="26"/>
<circle r="10" fill="#0B3D91"/>
<g stroke="#fff" stroke-width="8">
<line x1="0" y1="-34" x2="0" y2="-24"/>
<line x1="0" y1="34" x2="0" y2="24"/>
<line x1="-34" y1="0" x2="-24" y2="0"/>
<line x1="34" y1="0" x2="24" y2="0"/>
<line x1="-24" y1="-24" x2="-17" y2="-17"/>
<line x1="24" y1="24" x2="17" y2="17"/>
<line x1="-24" y1="24" x2="-17" y2="17"/>
<line x1="24" y1="-24" x2="17" y2="-17"/>
</g>
</g>

<circle cx="60" cy="340" r="5" fill="url(#gold)"/>
<circle cx="345" cy="70" r="4" fill="url(#gold)" opacity=".8"/>
<circle cx="365" cy="330" r="3.5" fill="#fff" opacity=".5"/>
</svg>