<svg xmlns="http://www.w3.org/2000/svg" viewBox="0 0 400 400">
<defs>
<linearGradient id="gold" x1="0%" y1="0%" x2="100%" y2="100%">
<stop offset="0%" stop-color="#F4D35E"/>
<stop offset="45%" stop-color="#D4AF37"/>
<stop offset="100%" stop-color="#B8860B"/>
</linearGradient>
<linearGradient id="navy" x1="0%" y1="0%" x2="100%" y2="100%">
<stop offset="0%" stop-color="#14468F"/>
<stop offset="55%" stop-color="#0B3D91"/>
<stop offset="100%" stop-color="#081B3A"/>
</linearGradient>
<radialGradient id="glow" cx="50%" cy="35%" r="70%">
<stop offset="0%" stop-color="#D4AF37" stop-opacity=".25"/>
<stop offset="100%" stop-color="#D4AF37" stop-opacity="0"/>
</radialGradient>
</defs>

<rect x="10" y="10" width="380" height="380" rx="42" fill="url(#navy)"/>
<rect x="10" y="10" width="380" height="380" rx="42" fill="url(#glow)"/>
<rect x="10.5" y="10.5" width="379" height="379" rx="42" fill="none" stroke="url(#gold)" stroke-width="1.5" opacity=".55"/>
<circle cx="200" cy="200" r="150" fill="none" stroke="#D4AF37" stroke-width="1" stroke-dasharray="2 10" opacity=".35"/>

<path d="M140 200 a60 60 0 0 1 120 0" fill="none" stroke="url(#gold)" stroke-width="9" stroke-linecap="round"/>
<rect x="128" y="196" width="24" height="40" rx="10" fill="url(#gold)"/>
<rect x="248" y="196" width="24" height="40" rx="10" fill="url(#gold)"/>
<path d="M260 236 v10 a14 14 0 0 1 -14 14 h-16" fill="none" stroke="url(#gold)" stroke-width="8" stroke-linecap="round"/>
<rect x="205" y="130" width="70" height="46" rx="12" fill="#fff" opacity=".95"/>
<path d="M225 176 l-10 16 v-16 z" fill="#fff" opacity=".95"/>
<circle cx="222" cy="153" r="5" fill="#0B3D91"/>
<circle cx="240" cy="153" r="5" fill="#0B3D91"/>
<circle cx="258" cy="153" r="5" fill="#0B3D91"/>

<circle cx="60" cy="340" r="5" fill="url(#gold)"/>
<circle cx="345" cy="70" r="4" fill="url(#gold)" opacity=".8"/>
<circle cx="365" cy="330" r="3.5" fill="#fff" opacity=".5"/>
</svg>