<svg xmlns="http://www.w3.org/2000/svg" viewBox="0 0 400 400">
<defs>
<linearGradient id="gold" x1="0%" y1="0%" x2="100%" y2="100%">
<stop offset="0%" stop-color="#F4D35E"/>
<stop offset="45%" stop-color="#D4AF37"/>
<stop offset="100%" stop-color="#B8860B"/>
</linearGradient>
<linearGradient id="navy" x1="0%" y1="0%" x2="100%" y2="100%">
<stop offset="0%" stop-color="#14468F"/>
<stop offset="55%" stop-color="#0B3D91"/>
<stop offset="100%" stop-color="#081B3A"/>
</linearGradient>
<radialGradient id="glow" cx="50%" cy="35%" r="70%">
<stop offset="0%" stop-color="#D4AF37" stop-opacity=".25"/>
<stop offset="100%" stop-color="#D4AF37" stop-opacity="0"/>
</radialGradient>
</defs>

<rect x="10" y="10" width="380" height="380" rx="42" fill="url(#navy)"/>
<rect x="10" y="10" width="380" height="380" rx="42" fill="url(#glow)"/>
<rect x="10.5" y="10.5" width="379" height="379" rx="42" fill="none" stroke="url(#gold)" stroke-width="1.5" opacity=".55"/>
<circle cx="200" cy="200" r="150" fill="none" stroke="#D4AF37" stroke-width="1" stroke-dasharray="2 10" opacity=".35"/>

<g transform="translate(170,190)" fill="url(#gold)">
<circle r="38"/>
<circle r="14" fill="#0B3D91"/>
<g stroke="url(#gold)" stroke-width="10">
<line x1="0" y1="-48" x2="0" y2="-34"/>
<line x1="0" y1="48" x2="0" y2="34"/>
<line x1="-48" y1="0" x2="-34" y2="0"/>
<line x1="48" y1="0" x2="34" y2="0"/>
<line x1="-34" y1="-34" x2="-24" y2="-24"/>
<line x1="34" y1="34" x2="24" y2="24"/>
<line x1="-34" y1="34" x2="-24" y2="24"/>
<line x1="34" y1="-34" x2="24" y2="-24"/>
</g>
</g>
<g transform="translate(268,250)" fill="#fff" opacity=".9">
<circle r="22"/>
<circle r="8" fill="#0B3D91"/>
<g stroke="#fff" stroke-width="6">
<line x1="0" y1="-28" x2="0" y2="-20"/>
<line x1="0" y1="28" x2="0" y2="20"/>
<line x1="-28" y1="0" x2="-20" y2="0"/>
<line x1="28" y1="0" x2="20" y2="0"/>
</g>
</g>
<path d="M200 190 h30 m0 0 v-30 m0 30 h20" stroke="#F4D35E" stroke-width="2" fill="none" opacity=".6"/>
<circle cx="250" cy="160" r="3" fill="#fff"/>

<circle cx="60" cy="340" r="5" fill="url(#gold)"/>
<circle cx="345" cy="70" r="4" fill="url(#gold)" opacity=".8"/>
<circle cx="365" cy="330" r="3.5" fill="#fff" opacity=".5"/>
</svg>