<svg xmlns="http://www.w3.org/2000/svg" viewBox="0 0 400 400">
<defs>
<linearGradient id="gold" x1="0%" y1="0%" x2="100%" y2="100%">
<stop offset="0%" stop-color="#F4D35E"/>
<stop offset="45%" stop-color="#D4AF37"/>
<stop offset="100%" stop-color="#B8860B"/>
</linearGradient>
<linearGradient id="navy" x1="0%" y1="0%" x2="100%" y2="100%">
<stop offset="0%" stop-color="#14468F"/>
<stop offset="55%" stop-color="#0B3D91"/>
<stop offset="100%" stop-color="#081B3A"/>
</linearGradient>
<radialGradient id="glow" cx="50%" cy="35%" r="70%">
<stop offset="0%" stop-color="#D4AF37" stop-opacity=".25"/>
<stop offset="100%" stop-color="#D4AF37" stop-opacity="0"/>
</radialGradient>
</defs>

<rect x="10" y="10" width="380" height="380" rx="42" fill="url(#navy)"/>
<rect x="10" y="10" width="380" height="380" rx="42" fill="url(#glow)"/>
<rect x="10.5" y="10.5" width="379" height="379" rx="42" fill="none" stroke="url(#gold)" stroke-width="1.5" opacity=".55"/>
<circle cx="200" cy="200" r="150" fill="none" stroke="#D4AF37" stroke-width="1" stroke-dasharray="2 10" opacity=".35"/>

<g stroke="#D4AF37" stroke-width="1.5" opacity=".55">
<line x1="140" y1="190" x2="200" y2="150"/>
<line x1="200" y1="150" x2="262" y2="190"/>
<line x1="140" y1="190" x2="262" y2="190"/>
<line x1="140" y1="190" x2="120" y2="260"/>
<line x1="262" y1="190" x2="282" y2="260"/>
<line x1="200" y1="150" x2="200" y2="90"/>
</g>
<circle cx="200" cy="70" r="16" fill="url(#gold)"/>
<circle cx="200" cy="150" r="30" fill="#fff" opacity=".95"/>
<path d="M172 205 q28 -34 56 0 z" fill="#fff" opacity=".95"/>
<circle cx="140" cy="190" r="24" fill="url(#gold)"/>
<path d="M112 236 q28 -28 56 0 z" fill="url(#gold)"/>
<circle cx="262" cy="190" r="24" fill="url(#gold)"/>
<path d="M234 236 q28 -28 56 0 z" fill="url(#gold)"/>
<circle cx="120" cy="260" r="9" fill="#fff" opacity=".8"/>
<circle cx="282" cy="260" r="9" fill="#fff" opacity=".8"/>

<circle cx="60" cy="340" r="5" fill="url(#gold)"/>
<circle cx="345" cy="70" r="4" fill="url(#gold)" opacity=".8"/>
<circle cx="365" cy="330" r="3.5" fill="#fff" opacity=".5"/>
</svg>