<svg xmlns="http://www.w3.org/2000/svg" viewBox="0 0 400 400">
<defs>
<linearGradient id="gold" x1="0%" y1="0%" x2="100%" y2="100%">
<stop offset="0%" stop-color="#F4D35E"/>
<stop offset="45%" stop-color="#D4AF37"/>
<stop offset="100%" stop-color="#B8860B"/>
</linearGradient>
<linearGradient id="navy" x1="0%" y1="0%" x2="100%" y2="100%">
<stop offset="0%" stop-color="#14468F"/>
<stop offset="55%" stop-color="#0B3D91"/>
<stop offset="100%" stop-color="#081B3A"/>
</linearGradient>
<radialGradient id="glow" cx="50%" cy="35%" r="70%">
<stop offset="0%" stop-color="#D4AF37" stop-opacity=".25"/>
<stop offset="100%" stop-color="#D4AF37" stop-opacity="0"/>
</radialGradient>
</defs>

<rect x="10" y="10" width="380" height="380" rx="42" fill="url(#navy)"/>
<rect x="10" y="10" width="380" height="380" rx="42" fill="url(#glow)"/>
<rect x="10.5" y="10.5" width="379" height="379" rx="42" fill="none" stroke="url(#gold)" stroke-width="1.5" opacity=".55"/>
<circle cx="200" cy="200" r="150" fill="none" stroke="#D4AF37" stroke-width="1" stroke-dasharray="2 10" opacity=".35"/>

<rect x="90" y="110" width="220" height="160" rx="14" fill="#0F2E63" stroke="url(#gold)" stroke-width="1.5"/>
<rect x="90" y="110" width="220" height="28" rx="14" fill="#0F2E63" stroke="url(#gold)" stroke-width="1.5"/>
<circle cx="108" cy="124" r="4" fill="url(#gold)"/>
<circle cx="122" cy="124" r="4" fill="#fff" opacity=".5"/>
<circle cx="136" cy="124" r="4" fill="#fff" opacity=".3"/>
<rect x="112" y="160" width="35" height="70" rx="4" fill="url(#gold)" opacity=".9"/>
<rect x="157" y="180" width="35" height="50" rx="4" fill="#fff" opacity=".85"/>
<rect x="202" y="150" width="35" height="80" rx="4" fill="url(#gold)" opacity=".7"/>
<rect x="247" y="195" width="35" height="35" rx="4" fill="#fff" opacity=".6"/>
<path d="M112 165 L147 150 L192 168 L237 130 L282 155" stroke="#F4D35E" stroke-width="2.5" fill="none" stroke-linecap="round" stroke-linejoin="round"/>

<circle cx="60" cy="340" r="5" fill="url(#gold)"/>
<circle cx="345" cy="70" r="4" fill="url(#gold)" opacity=".8"/>
<circle cx="365" cy="330" r="3.5" fill="#fff" opacity=".5"/>
</svg>