<svg xmlns="http://www.w3.org/2000/svg" viewBox="0 0 400 400">
<defs>
<linearGradient id="gold" x1="0%" y1="0%" x2="100%" y2="100%">
<stop offset="0%" stop-color="#F4D35E"/>
<stop offset="45%" stop-color="#D4AF37"/>
<stop offset="100%" stop-color="#B8860B"/>
</linearGradient>
<linearGradient id="navy" x1="0%" y1="0%" x2="100%" y2="100%">
<stop offset="0%" stop-color="#14468F"/>
<stop offset="55%" stop-color="#0B3D91"/>
<stop offset="100%" stop-color="#081B3A"/>
</linearGradient>
<radialGradient id="glow" cx="50%" cy="35%" r="70%">
<stop offset="0%" stop-color="#D4AF37" stop-opacity=".25"/>
<stop offset="100%" stop-color="#D4AF37" stop-opacity="0"/>
</radialGradient>
</defs>

<rect x="10" y="10" width="380" height="380" rx="42" fill="url(#navy)"/>
<rect x="10" y="10" width="380" height="380" rx="42" fill="url(#glow)"/>
<rect x="10.5" y="10.5" width="379" height="379" rx="42" fill="none" stroke="url(#gold)" stroke-width="1.5" opacity=".55"/>
<circle cx="200" cy="200" r="150" fill="none" stroke="#D4AF37" stroke-width="1" stroke-dasharray="2 10" opacity=".35"/>

<rect x="120" y="150" width="160" height="100" rx="8" fill="#0F2E63" stroke="url(#gold)" stroke-width="1.5"/>
<rect x="105" y="250" width="190" height="14" rx="7" fill="url(#gold)"/>
<g stroke="#fff" stroke-width="3" stroke-linecap="round" opacity=".85">
<line x1="140" y1="172" x2="220" y2="172"/>
<line x1="140" y1="192" x2="205" y2="192"/>
<line x1="140" y1="212" x2="230" y2="212"/>
</g>
<circle cx="252" cy="192" r="20" fill="url(#gold)"/>
<path d="M244 192 l6 6 l12 -14" stroke="#0B3D91" stroke-width="3.5" fill="none" stroke-linecap="round" stroke-linejoin="round"/>

<circle cx="60" cy="340" r="5" fill="url(#gold)"/>
<circle cx="345" cy="70" r="4" fill="url(#gold)" opacity=".8"/>
<circle cx="365" cy="330" r="3.5" fill="#fff" opacity=".5"/>
</svg>